<svg width="40" height="40" viewBox="0 0 40 40" fill="none" xmlns="http://www.w3.org/2000/svg">
<circle opacity="0.1" cx="20" cy="20" r="20" fill="#919191"/>
<path d="M16.1203 26L13.9603 22.88H13.8323H11.5763V26H8.98425V14.8H13.8323C14.8243 14.8 15.6829 14.9653 16.4083 15.296C17.1443 15.6267 17.7096 16.096 18.1043 16.704C18.4989 17.312 18.6963 18.032 18.6963 18.864C18.6963 19.696 18.4936 20.416 18.0883 21.024C17.6936 21.6213 17.1283 22.08 16.3923 22.4L18.9043 26H16.1203ZM16.0723 18.864C16.0723 18.2347 15.8696 17.7547 15.4643 17.424C15.0589 17.0827 14.4669 16.912 13.6883 16.912H11.5763V20.816H13.6883C14.4669 20.816 15.0589 20.6453 15.4643 20.304C15.8696 19.9627 16.0723 19.4827 16.0723 18.864ZM31.0219 14.8V26H28.4299V21.408H23.3419V26H20.7499V14.8H23.3419V19.216H28.4299V14.8H31.0219Z" fill="black"/>
</svg>
